<?xml version="1.0" encoding="UTF-8"?>
<svg id="Capa_1" data-name="Capa 1" xmlns="http://www.w3.org/2000/svg" viewBox="0 0 1329.33 1037.97">
  <defs>
    <style>
      .cls-1 {
        fill: #fff;
      }
    </style>
  </defs>
  <path class="cls-1" d="M1091.39,616.53c0-101.11,.15-202.21-.08-303.32-.09-38.07-29.42-63.3-64.9-56.68-22.57,4.21-40.29,23.96-42.48,48.2-.86,9.56-.46,19.24-.46,28.87,0,128.92,.12,257.85,.02,386.77-.12,151.36-93.24,274.3-240.44,308.09-177.2,40.67-342.15-78.2-367.53-242.58-4.46-28.92-5.62-58.51-6.15-87.84-1.36-76.53,73.66-137.66,148.64-122.06,60.87,12.66,99.57,57.73,103.01,120.11,.71,12.8,.08,25.74,1.6,38.43,3.31,27.71,25.36,47.98,51.26,48.31,29.69,.38,51.1-17.73,54.82-47.52,1.92-15.35,2.93-30.91,2.96-46.38,.24-130.53-.6-261.06,.4-391.58,.88-114.64,53.51-201.14,152.08-257.24,133.72-76.11,302.01-36.27,390.35,89.58,37.77,53.81,54.53,114.39,54.61,179.67,.24,199,.3,398,.13,597.01-.06,67.79-41.7,119.79-101.78,128.48-71.81,10.38-134.75-42.16-135.83-115-1.04-70.06-.27-140.15-.29-210.23,0-31.03,0-62.05,0-93.08h.05Z"/>
  <path class="cls-1" d="M.24,601.43c0-96.26-.1-192.51,.03-288.77,.11-81.98,26.09-154.33,82.29-214.66C145.05,30.91,222.73-2.14,314.29,.11c101.22,2.49,183.86,43.44,244.76,125.12,37.47,50.26,56.74,107.52,58.01,170.06,.54,26.46,.71,53.99-5.73,79.31-15.05,59.13-71.99,93.84-137.2,87.88-54.89-5.01-103.5-54.95-108.41-111.78-1.24-14.35-1.41-28.79-2.21-43.19-1.78-32.03-23.89-54.05-54.11-53.99-30.68,.06-54.17,23.18-54.57,55.24-.56,44.91-.17,89.84-.16,134.76,.01,154.55,.16,309.09,0,463.64-.06,58.56-33.9,107.77-84.21,123.78C82.14,1059.04,.84,999.87,.3,906.24c-.59-101.6-.13-203.21-.13-304.81h.08Z"/>
</svg>